<svg width="842" height="306" viewBox="0 0 842 306" fill="none" xmlns="http://www.w3.org/2000/svg">
<path d="M304.134 144.565C302.08 144.565 300.43 145.091 299.185 146.144C297.941 147.196 297.038 148.578 296.478 150.289C295.918 151.999 295.638 153.907 295.638 156.012V178.117H278.832V153.841C278.832 148.973 279.735 144.532 281.54 140.519C283.345 136.506 286.114 133.315 289.849 130.947C293.584 128.512 298.345 127.295 304.134 127.295C309.922 127.295 314.684 128.512 318.419 130.947C322.153 133.315 324.923 136.506 326.728 140.519C328.533 144.532 329.436 148.973 329.436 153.841V178.117H312.63V156.012C312.63 153.907 312.35 151.999 311.79 150.289C311.229 148.578 310.327 147.196 309.082 146.144C307.837 145.091 306.188 144.565 304.134 144.565Z" fill="url(#paint0_linear_1401_549)"/>
<path d="M362.543 179.598C357.688 179.598 353.331 178.414 349.472 176.045C345.613 173.677 342.532 170.519 340.229 166.571C337.988 162.558 336.867 158.15 336.867 153.348C336.867 148.545 337.988 144.17 340.229 140.223C342.532 136.275 345.613 133.118 349.472 130.749C353.331 128.381 357.688 127.197 362.543 127.197C367.398 127.197 371.755 128.381 375.614 130.749C379.535 133.118 382.616 136.275 384.857 140.223C387.097 144.17 388.218 148.545 388.218 153.348C388.218 158.15 387.097 162.558 384.857 166.571C382.616 170.519 379.535 173.677 375.614 176.045C371.755 178.414 367.398 179.598 362.543 179.598ZM362.543 162.92C364.348 162.92 365.904 162.493 367.211 161.637C368.518 160.782 369.545 159.631 370.292 158.183C371.039 156.736 371.412 155.157 371.412 153.446C371.412 151.67 371.039 150.058 370.292 148.611C369.545 147.164 368.518 146.012 367.211 145.157C365.904 144.302 364.348 143.874 362.543 143.874C360.8 143.874 359.244 144.302 357.874 145.157C356.567 146.012 355.54 147.164 354.793 148.611C354.046 150.058 353.673 151.67 353.673 153.446C353.673 155.157 354.046 156.736 354.793 158.183C355.54 159.631 356.567 160.782 357.874 161.637C359.244 162.493 360.8 162.92 362.543 162.92Z" fill="url(#paint1_linear_1401_549)"/>
<path d="M403.678 168.446L390.14 128.775H408.066L419.176 163.414C418.927 163.085 418.709 162.887 418.523 162.821C418.336 162.69 418.149 162.624 417.962 162.624C417.776 162.624 417.589 162.69 417.402 162.821C417.215 162.887 416.998 163.085 416.749 163.414L427.859 128.775H445.785L431.967 168.446C430.66 172.196 428.824 175.025 426.459 176.933C424.156 178.775 421.324 179.696 417.962 179.696C414.601 179.696 411.707 178.775 409.28 176.933C406.852 175.025 404.985 172.196 403.678 168.446Z" fill="url(#paint2_linear_1401_549)"/>
<path d="M470.521 179.598C465.977 179.598 461.993 178.414 458.57 176.045C455.147 173.677 452.47 170.519 450.541 166.571C448.611 162.558 447.646 158.15 447.646 153.348C447.646 148.545 448.767 144.17 451.008 140.223C453.311 136.275 456.392 133.118 460.251 130.749C464.11 128.381 468.467 127.197 473.322 127.197C478.301 127.197 482.72 128.348 486.579 130.65C490.438 132.887 493.457 135.979 495.636 139.927C497.876 143.808 498.997 148.282 498.997 153.348V178.117H483.125V160.848H487.793C487.793 164.466 487.108 167.69 485.739 170.519C484.37 173.348 482.409 175.585 479.857 177.229C477.305 178.808 474.193 179.598 470.521 179.598ZM473.322 162.92C475.127 162.92 476.683 162.493 477.99 161.637C479.297 160.782 480.324 159.631 481.071 158.183C481.818 156.736 482.191 155.157 482.191 153.446C482.191 151.67 481.818 150.058 481.071 148.611C480.324 147.164 479.297 146.012 477.99 145.157C476.683 144.302 475.127 143.874 473.322 143.874C471.579 143.874 470.023 144.302 468.653 145.157C467.346 146.012 466.319 147.164 465.572 148.611C464.826 150.058 464.452 151.67 464.452 153.446C464.452 155.157 464.826 156.736 465.572 158.183C466.319 159.631 467.346 160.782 468.653 161.637C470.023 162.493 471.579 162.92 473.322 162.92Z" fill="url(#paint3_linear_1401_549)"/>
<path d="M510.19 106.078H526.995V178.117H510.19V106.078Z" fill="url(#paint4_linear_1401_549)"/>
<path d="M562.036 179.598C557.181 179.598 552.824 178.414 548.965 176.045C545.106 173.677 542.025 170.519 539.722 166.571C537.481 162.558 536.361 158.15 536.361 153.348C536.361 148.545 537.481 144.17 539.722 140.223C542.025 136.275 545.106 133.118 548.965 130.749C552.824 128.381 557.181 127.197 562.036 127.197C566.891 127.197 571.248 128.381 575.107 130.749C579.028 133.118 582.109 136.275 584.35 140.223C586.591 144.17 587.711 148.545 587.711 153.348C587.711 158.15 586.591 162.558 584.35 166.571C582.109 170.519 579.028 173.677 575.107 176.045C571.248 178.414 566.891 179.598 562.036 179.598ZM562.036 162.92C563.841 162.92 565.397 162.493 566.704 161.637C568.011 160.782 569.038 159.631 569.785 158.183C570.532 156.736 570.906 155.157 570.906 153.446C570.906 151.67 570.532 150.058 569.785 148.611C569.038 147.164 568.011 146.012 566.704 145.157C565.397 144.302 563.841 143.874 562.036 143.874C560.293 143.874 558.737 144.302 557.368 145.157C556.061 146.012 555.034 147.164 554.287 148.611C553.54 150.058 553.166 151.67 553.166 153.446C553.166 155.157 553.54 156.736 554.287 158.183C555.034 159.631 556.061 160.782 557.368 161.637C558.737 162.493 560.293 162.92 562.036 162.92Z" fill="url(#paint5_linear_1401_549)"/>
<path d="M617.621 202.295C611.832 202.295 606.884 200.979 602.776 198.348C598.668 195.716 595.524 191.999 593.346 187.196L607.257 179.302C608.004 180.946 609.156 182.492 610.712 183.94C612.268 185.387 614.477 186.111 617.341 186.111C619.519 186.111 621.386 185.617 622.942 184.631C624.498 183.644 625.712 182.196 626.584 180.289C627.455 178.446 627.891 176.21 627.891 173.578V168.743H630.878C630.878 169.992 630.412 171.407 629.478 172.986C628.607 174.499 627.144 175.815 625.09 176.933C623.036 178.052 620.266 178.611 616.78 178.611C612.486 178.611 608.564 177.525 605.016 175.354C601.469 173.183 598.637 170.19 596.52 166.374C594.404 162.558 593.346 158.183 593.346 153.249C593.346 148.447 594.466 144.104 596.707 140.223C599.01 136.275 602.091 133.15 605.95 130.848C609.809 128.479 614.166 127.295 619.021 127.295C624 127.295 628.42 128.414 632.279 130.65C636.138 132.887 639.157 135.979 641.335 139.927C643.576 143.808 644.696 148.282 644.696 153.348V172.887C644.696 178.808 643.514 183.973 641.148 188.381C638.783 192.788 635.547 196.21 631.439 198.644C627.393 201.078 622.787 202.295 617.621 202.295ZM618.741 161.933C620.422 161.933 621.915 161.571 623.222 160.848C624.592 160.058 625.65 158.973 626.397 157.591C627.206 156.21 627.611 154.631 627.611 152.854C627.611 151.078 627.206 149.532 626.397 148.216C625.65 146.9 624.592 145.881 623.222 145.157C621.915 144.368 620.422 143.973 618.741 143.973C617.123 143.973 615.629 144.368 614.259 145.157C612.89 145.881 611.801 146.9 610.992 148.216C610.245 149.532 609.871 151.078 609.871 152.854C609.871 154.631 610.245 156.21 610.992 157.591C611.801 158.973 612.89 160.058 614.259 160.848C615.629 161.571 617.123 161.933 618.741 161.933Z" fill="url(#paint6_linear_1401_549)"/>
<path d="M655.889 128.775H672.695V178.117H655.889V128.775ZM664.292 123.545C662.487 123.545 660.806 123.085 659.25 122.164C657.694 121.177 656.449 119.861 655.516 118.216C654.644 116.572 654.208 114.795 654.208 112.887C654.208 110.914 654.644 109.137 655.516 107.558C656.449 105.914 657.694 104.631 659.25 103.71C660.806 102.723 662.487 102.229 664.292 102.229C666.159 102.229 667.84 102.723 669.334 103.71C670.89 104.631 672.103 105.914 672.975 107.558C673.908 109.137 674.375 110.914 674.375 112.887C674.375 114.795 673.908 116.572 672.975 118.216C672.103 119.861 670.89 121.177 669.334 122.164C667.84 123.085 666.159 123.545 664.292 123.545Z" fill="url(#paint7_linear_1401_549)"/>
<path d="M707.735 179.499C704.125 179.565 700.733 178.907 697.559 177.525C694.447 176.144 691.739 174.269 689.436 171.9C687.133 169.466 685.328 166.67 684.021 163.512C682.714 160.289 682.06 156.9 682.06 153.348C682.06 149.795 682.714 146.44 684.021 143.282C685.328 140.058 687.133 137.262 689.436 134.894C691.739 132.46 694.447 130.585 697.559 129.269C700.733 127.887 704.125 127.229 707.735 127.295C712.404 127.361 716.73 128.578 720.713 130.947C724.759 133.249 727.84 136.933 729.956 141.999L716.045 149.894C715.298 148.183 714.209 146.769 712.777 145.65C711.346 144.532 709.665 143.973 707.735 143.973C705.993 143.973 704.437 144.4 703.067 145.256C701.76 146.045 700.733 147.164 699.986 148.611C699.239 149.993 698.866 151.571 698.866 153.348C698.866 155.058 699.239 156.637 699.986 158.085C700.733 159.532 701.76 160.683 703.067 161.539C704.437 162.394 705.993 162.821 707.735 162.821C709.665 162.821 711.346 162.262 712.777 161.144C714.209 159.96 715.298 158.545 716.045 156.9L729.956 164.795C727.84 169.861 724.759 173.578 720.713 175.946C716.73 178.249 712.404 179.433 707.735 179.499Z" fill="url(#paint8_linear_1401_549)"/>
<path d="M757.543 179.598C752.999 179.598 749.016 178.414 745.592 176.045C742.169 173.677 739.493 170.519 737.563 166.571C735.634 162.558 734.669 158.15 734.669 153.348C734.669 148.545 735.789 144.17 738.03 140.223C740.333 136.275 743.414 133.118 747.273 130.749C751.132 128.381 755.489 127.197 760.344 127.197C765.323 127.197 769.743 128.348 773.602 130.65C777.461 132.887 780.48 135.979 782.658 139.927C784.899 143.808 786.019 148.282 786.019 153.348V178.117H770.147V160.848H774.816C774.816 164.466 774.131 167.69 772.762 170.519C771.392 173.348 769.432 175.585 766.88 177.229C764.328 178.808 761.215 179.598 757.543 179.598ZM760.344 162.92C762.149 162.92 763.705 162.493 765.012 161.637C766.319 160.782 767.346 159.631 768.093 158.183C768.84 156.736 769.214 155.157 769.214 153.446C769.214 151.67 768.84 150.058 768.093 148.611C767.346 147.164 766.319 146.012 765.012 145.157C763.705 144.302 762.149 143.874 760.344 143.874C758.601 143.874 757.045 144.302 755.676 145.157C754.369 146.012 753.342 147.164 752.595 148.611C751.848 150.058 751.474 151.67 751.474 153.446C751.474 155.157 751.848 156.736 752.595 158.183C753.342 159.631 754.369 160.782 755.676 161.637C757.045 162.493 758.601 162.92 760.344 162.92Z" fill="url(#paint9_linear_1401_549)"/>
<path fill-rule="evenodd" clip-rule="evenodd" d="M240.411 131.46C251.963 143.019 251.963 161.76 240.411 173.319L173.21 240.558C161.658 252.117 142.928 252.117 131.375 240.558L64.3822 173.526C52.8299 161.967 52.8299 143.227 64.3822 131.668L131.583 64.4291C143.135 52.8702 161.865 52.8702 173.418 64.4291L240.411 131.46ZM224.149 157.048C226.721 154.475 226.721 150.304 224.149 147.731L157.156 80.6997C154.585 78.1268 150.416 78.1268 147.844 80.6997L80.6436 147.938C78.0721 150.511 78.0721 154.683 80.6436 157.256L147.637 224.287C150.208 226.86 154.377 226.86 156.949 224.287L224.149 157.048Z" fill="url(#paint10_linear_1401_549)"/>
<g filter="url(#filter0_bi_1401_549)">
<path fill-rule="evenodd" clip-rule="evenodd" d="M78.6836 108.337C78.6836 91.9899 91.9277 78.7383 108.265 78.7383H196.519C212.856 78.7383 226.1 91.9899 226.1 108.337V196.64C226.1 212.987 212.856 226.239 196.519 226.239H108.265C91.9277 226.239 78.6836 212.987 78.6836 196.64V108.337ZM108.265 101.748C104.629 101.748 101.681 104.698 101.681 108.337V196.64C101.681 200.279 104.629 203.229 108.265 203.229H196.519C200.155 203.229 203.103 200.279 203.103 196.64V108.337C203.103 104.698 200.155 101.748 196.519 101.748H108.265Z" fill="url(#paint11_linear_1401_549)" fill-opacity="0.8"/>
</g>
<path fill-rule="evenodd" clip-rule="evenodd" d="M226.098 187.639L240.41 173.32C251.962 161.761 251.962 143.02 240.41 131.461L173.417 64.4299C161.864 52.871 143.134 52.871 131.582 64.4299L117.281 78.7386H152.881L152.927 78.7847C154.467 78.8844 155.978 79.523 157.155 80.7005L224.148 147.732C225.352 148.936 225.992 150.49 226.069 152.066L226.098 152.095V187.639Z" fill="url(#paint12_linear_1401_549)"/>
<path fill-rule="evenodd" clip-rule="evenodd" d="M187.518 226.238L173.207 240.558C161.655 252.117 142.925 252.116 131.372 240.558L64.3791 173.526C52.8267 161.967 52.8268 143.227 64.3791 131.668L78.6794 117.359V152.39L78.7141 152.424C78.6687 154.168 79.3108 155.925 80.6404 157.256L147.634 224.287C148.889 225.543 150.524 226.186 152.169 226.216L152.191 226.238H187.518Z" fill="url(#paint13_linear_1401_549)"/>
<defs>
<filter id="filter0_bi_1401_549" x="73.6836" y="73.7383" width="157.418" height="157.5" filterUnits="userSpaceOnUse" color-interpolation-filters="sRGB">
<feFlood flood-opacity="0" result="BackgroundImageFix"/>
<feGaussianBlur in="BackgroundImageFix" stdDeviation="2.5"/>
<feComposite in2="SourceAlpha" operator="in" result="effect1_backgroundBlur_1401_549"/>
<feBlend mode="normal" in="SourceGraphic" in2="effect1_backgroundBlur_1401_549" result="shape"/>
<feColorMatrix in="SourceAlpha" type="matrix" values="0 0 0 0 0 0 0 0 0 0 0 0 0 0 0 0 0 0 127 0" result="hardAlpha"/>
<feOffset dx="2.5" dy="2.5"/>
<feGaussianBlur stdDeviation="3.75"/>
<feComposite in2="hardAlpha" operator="arithmetic" k2="-1" k3="1"/>
<feColorMatrix type="matrix" values="0 0 0 0 1 0 0 0 0 1 0 0 0 0 1 0 0 0 0.4 0"/>
<feBlend mode="normal" in2="shape" result="effect2_innerShadow_1401_549"/>
</filter>
<linearGradient id="paint0_linear_1401_549" x1="274.074" y1="156.358" x2="938.353" y2="156.358" gradientUnits="userSpaceOnUse">
<stop stop-color="#95E8C2"/>
<stop offset="1" stop-color="#429691"/>
</linearGradient>
<linearGradient id="paint1_linear_1401_549" x1="274.074" y1="156.358" x2="938.353" y2="156.358" gradientUnits="userSpaceOnUse">
<stop stop-color="#95E8C2"/>
<stop offset="1" stop-color="#429691"/>
</linearGradient>
<linearGradient id="paint2_linear_1401_549" x1="274.074" y1="156.358" x2="938.353" y2="156.358" gradientUnits="userSpaceOnUse">
<stop stop-color="#95E8C2"/>
<stop offset="1" stop-color="#429691"/>
</linearGradient>
<linearGradient id="paint3_linear_1401_549" x1="274.074" y1="156.358" x2="938.353" y2="156.358" gradientUnits="userSpaceOnUse">
<stop stop-color="#95E8C2"/>
<stop offset="1" stop-color="#429691"/>
</linearGradient>
<linearGradient id="paint4_linear_1401_549" x1="274.074" y1="156.358" x2="938.353" y2="156.358" gradientUnits="userSpaceOnUse">
<stop stop-color="#95E8C2"/>
<stop offset="1" stop-color="#429691"/>
</linearGradient>
<linearGradient id="paint5_linear_1401_549" x1="274.074" y1="156.358" x2="938.353" y2="156.358" gradientUnits="userSpaceOnUse">
<stop stop-color="#95E8C2"/>
<stop offset="1" stop-color="#429691"/>
</linearGradient>
<linearGradient id="paint6_linear_1401_549" x1="274.074" y1="156.358" x2="938.353" y2="156.358" gradientUnits="userSpaceOnUse">
<stop stop-color="#95E8C2"/>
<stop offset="1" stop-color="#429691"/>
</linearGradient>
<linearGradient id="paint7_linear_1401_549" x1="274.074" y1="156.358" x2="938.353" y2="156.358" gradientUnits="userSpaceOnUse">
<stop stop-color="#95E8C2"/>
<stop offset="1" stop-color="#429691"/>
</linearGradient>
<linearGradient id="paint8_linear_1401_549" x1="274.074" y1="156.358" x2="938.353" y2="156.358" gradientUnits="userSpaceOnUse">
<stop stop-color="#95E8C2"/>
<stop offset="1" stop-color="#429691"/>
</linearGradient>
<linearGradient id="paint9_linear_1401_549" x1="274.074" y1="156.358" x2="938.353" y2="156.358" gradientUnits="userSpaceOnUse">
<stop stop-color="#95E8C2"/>
<stop offset="1" stop-color="#429691"/>
</linearGradient>
<linearGradient id="paint10_linear_1401_549" x1="111.652" y1="258.922" x2="160.683" y2="61.0844" gradientUnits="userSpaceOnUse">
<stop stop-color="#429691"/>
<stop offset="1" stop-color="#95E8C2"/>
</linearGradient>
<linearGradient id="paint11_linear_1401_549" x1="251.039" y1="108.361" x2="85.3553" y2="207.981" gradientUnits="userSpaceOnUse">
<stop stop-color="#429691"/>
<stop offset="1" stop-color="#95E8C2"/>
</linearGradient>
<linearGradient id="paint12_linear_1401_549" x1="204.084" y1="94.5702" x2="155.404" y2="144.492" gradientUnits="userSpaceOnUse">
<stop stop-color="#89DDBC"/>
<stop offset="1" stop-color="#6BBEA9"/>
</linearGradient>
<linearGradient id="paint13_linear_1401_549" x1="121.617" y1="117.359" x2="121.617" y2="249.227" gradientUnits="userSpaceOnUse">
<stop stop-color="#75C8B0"/>
<stop offset="1" stop-color="#51A49A"/>
</linearGradient>
</defs>
</svg>
